<svg xmlns="http://www.w3.org/2000/svg" enable-background="new 0 0 24 24" viewBox="0 0 24 24" id="Java">
  <path fill="#fab12f" d="M12.034,13.666c-0.094,0-0.189-0.026-0.274-0.082C11.647,13.51,9,11.744,9,9.5c0-2.381,1.709-3.63,3.217-4.733c1.225-0.896,2.283-1.67,2.283-2.868c0-0.665-0.419-0.994-0.424-0.998c-0.222-0.165-0.268-0.478-0.104-0.699s0.478-0.268,0.699-0.104c0.034,0.025,0.828,0.627,0.828,1.8c0,1.706-1.369,2.707-2.693,3.675C11.363,6.63,10,7.626,10,9.5c0,1.704,2.287,3.233,2.31,3.249c0.23,0.152,0.294,0.462,0.143,0.692C12.356,13.587,12.196,13.666,12.034,13.666z" class="colorfcc34a svgShape"></path>
  <path fill="#fab12f" d="M14,13.5c-0.276,0-0.5-0.224-0.5-0.5c0-0.811-0.275-1.107-0.624-1.483C12.486,11.097,12,10.573,12,9.409c0-2.235,4.278-4.589,4.766-4.85c0.243-0.129,0.546-0.038,0.677,0.205s0.039,0.546-0.205,0.677C15.6,6.319,13,8.172,13,9.409c0,0.771,0.255,1.047,0.609,1.428C14.006,11.265,14.5,11.797,14.5,13C14.5,13.276,14.276,13.5,14,13.5z" class="colorfcc34a svgShape"></path>
  <path fill="#fa4032" d="M9.044 16.021c-1.799 0-3.321-.208-3.998-.628C4.595 15.112 4.5 14.769 4.5 14.531c0-1.191 2.375-1.779 3.79-2.024.274-.047.531.135.578.407.047.272-.135.531-.407.578-1.42.246-2.833.754-2.965 1.066.551.728 7.976.751 11.361-.924.248-.123.547-.021.67.227s.021.547-.227.67C15.306 15.518 11.841 16.021 9.044 16.021zM10.924 18.27c-3.212 0-3.62-1.279-3.67-1.556-.049-.271.131-.532.403-.581.262-.044.513.119.575.374.101.269.935.913 3.588.731 3.199-.218 3.762-.741 3.784-.763.126-.247.401-.308.646-.183.247.124.32.463.196.71-.18.356-1.012.991-4.558 1.233C11.542 18.259 11.221 18.27 10.924 18.27zM11.417 20.264c-2.155 0-3.578-.778-3.667-.828-.24-.135-.326-.438-.191-.679.134-.241.438-.329.68-.193.116.064 2.896 1.559 6.563-.022.254-.11.548.007.657.261s-.007.548-.261.657C13.801 20.062 12.514 20.264 11.417 20.264z" class="color110638 svgShape"></path>
  <path fill="#fa4032" d="M7.846,22.304c-1.742,0-3.155-0.118-3.764-0.365C3.576,21.734,3.5,21.404,3.5,21.226c0-0.994,1.65-1.583,2.359-1.792c0.266-0.075,0.543,0.075,0.62,0.339c0.078,0.265-0.074,0.542-0.339,0.621c-0.604,0.177-1.228,0.473-1.503,0.694c2.044,0.625,12.955-0.098,14.251-1.433c0.193-0.199,0.509-0.203,0.707-0.011c0.198,0.192,0.203,0.509,0.011,0.707C18.4,21.594,12.128,22.304,7.846,22.304z" class="color110638 svgShape"></path>
  <path fill="#fa4032" d="M9.24 23.992c-1.885 0-3.386-.144-4.023-.368-.261-.091-.397-.376-.306-.637s.376-.398.637-.306c1.783.625 11.376.526 15.445-1.912.236-.142.544-.065.686.172.142.237.065.544-.172.686C18.568 23.388 13.1 23.992 9.24 23.992zM16.97 18.202c-.195 0-.38-.115-.461-.305-.107-.254.012-.548.266-.655.967-.409 3.726-1.881 3.726-3.233 0-.338-.12-.462-.209-.525-.479-.338-1.713-.06-2.234.127-.263.091-.546-.042-.64-.302-.093-.259.041-.545.3-.639.213-.077 2.113-.732 3.148-.005.29.204.635.602.635 1.344 0 2.258-3.893 3.967-4.336 4.154C17.1 18.189 17.034 18.202 16.97 18.202z" class="color110638 svgShape"></path>
</svg>
