<svg xmlns="http://www.w3.org/2000/svg" fill="none" viewBox="0 0 32 32" id="Sword">
  <path fill="#fab12f" d="M29.8501 2.15002C29.9401 2.24002 30.0001 2.36002 30.0001 2.50002V5.61002C30.0001 5.86002 29.9001 6.10002 29.7201 6.27002L19.8656 16.0198 19.4931 17.557 17.9324 17.9325 20.5 19.5 22.07 22.07 19.79 23.6 15.9966 19.8478 11.8301 23.97 9.93005 22.07 19 11 29.8501 2.15002ZM2.15 2.15002 9 7.5 14.0659 14.0659 13.5 15.5 12.1303 16.0234 2.28 6.28002C2.1 6.10002 2 5.86002 2 5.61002V2.50002C2 2.36002 2.06 2.24002 2.15 2.15002Z" class="color9b9b9b svgShape"></path>
  <path fill="#fef3e2" d="M29.855 2.14499C29.765 2.05499 29.64 2 29.5 2H26.39C26.14 2 25.9 2.1 25.72 2.28L16.0028 12.1071 6.27999 2.28C6.09999 2.1 5.85999 2 5.60999 2H2.49999C2.36 2 2.23502 2.05499 2.14502 2.14497L14.0659 14.0659 8.03003 20.17 9.93005 22.07 29.855 2.14499ZM22.07 22.07 17.9325 17.9324 19.8698 16.0157 23.98 20.17 22.07 22.07Z" class="colord3d3d3 svgShape"></path>
  <path fill="#fa812f" d="M3.66003 26.44 5.56003 28.34 10.88 23.02 8.98003 21.12 3.66003 26.44ZM28.34 26.44 26.44 28.34 21.12 23.02 23.02 21.12 28.34 26.44Z" class="color321b41 svgShape"></path>
  <path fill="#945d59" d="M2.39994 27.71 4.29994 29.61C4.81994 30.13 5.66994 30.13 6.19994 29.61 6.72994 29.09 6.72994 28.24 6.19994 27.71L4.29994 25.81C3.77994 25.28 2.92994 25.28 2.39994 25.81 1.86994 26.33 1.86994 27.18 2.39994 27.71ZM29.6 27.71 27.7 29.61C27.18 30.13 26.33 30.13 25.8 29.61 25.27 29.09 25.27 28.24 25.8 27.71L27.7 25.81C28.22 25.28 29.07 25.28 29.6 25.81 30.13 26.33 30.13 27.18 29.6 27.71Z" class="color635994 svgShape"></path>
  <path fill="#fa4032" d="M22.97 17.63C22.91 17.43 23.06 17.23 23.27 17.23H25.39C25.54 17.23 25.67 17.33 25.7 17.48 26.13 19.74 25.43 22.1 23.77 23.76 22.11 25.43 19.75 26.12 17.49 25.69 17.35 25.66 17.24 25.53 17.24 25.38V23.26C17.24 23.05 17.44 22.9 17.64 22.96 19.13 23.39 20.76 22.97 21.87 21.86 22.98 20.75 23.39 19.13 22.97 17.63ZM9.03 17.64C8.6 19.13 9.02 20.76 10.13 21.87 11.23 22.96 12.81 23.38 14.28 22.99 14.48 22.94 14.68 23.08 14.68 23.29V25.4C14.68 25.55 14.57 25.68 14.42 25.71 12.19 26.11 9.87 25.41 8.23 23.77 6.56 22.11 5.87 19.75 6.3 17.49 6.33 17.35 6.46 17.24 6.61 17.24H8.73C8.94 17.24 9.09 17.44 9.03 17.64Z" class="color533566 svgShape"></path>
</svg>
